<mxfile host="app.diagrams.net" modified="2022-05-05T18:19:11.708Z" agent="5.0 (X11; Linux x86_64) AppleWebKit/537.36 (KHTML, like Gecko) Chrome/99.0.4844.84 Safari/537.36" etag="GW3H95L6o1NiQ63RLGeX" version="16.5.4" type="github" pages="3">
  <diagram id="hCghxKvmUoczRnFk2EW5" name="many-to-one">
    <mxGraphModel dx="980" dy="609" grid="1" gridSize="10" guides="1" tooltips="1" connect="1" arrows="1" fold="1" page="1" pageScale="1" pageWidth="827" pageHeight="1169" math="0" shadow="0">
      <root>
        <mxCell id="0" />
        <mxCell id="1" parent="0" />
        <mxCell id="EPkfVW3bVox5Lf1lPbg6-3" value="Author" style="swimlane;fontStyle=0;childLayout=stackLayout;horizontal=1;startSize=30;horizontalStack=0;resizeParent=1;resizeParentMax=0;resizeLast=0;collapsible=1;marginBottom=0;" vertex="1" parent="1">
          <mxGeometry x="200" y="90" width="140" height="90" as="geometry" />
        </mxCell>
        <mxCell id="EPkfVW3bVox5Lf1lPbg6-4" value="id" style="text;strokeColor=none;fillColor=none;align=left;verticalAlign=middle;spacingLeft=4;spacingRight=4;overflow=hidden;points=[[0,0.5],[1,0.5]];portConstraint=eastwest;rotatable=0;" vertex="1" parent="EPkfVW3bVox5Lf1lPbg6-3">
          <mxGeometry y="30" width="140" height="30" as="geometry" />
        </mxCell>
        <mxCell id="EPkfVW3bVox5Lf1lPbg6-5" value="name" style="text;strokeColor=none;fillColor=none;align=left;verticalAlign=middle;spacingLeft=4;spacingRight=4;overflow=hidden;points=[[0,0.5],[1,0.5]];portConstraint=eastwest;rotatable=0;" vertex="1" parent="EPkfVW3bVox5Lf1lPbg6-3">
          <mxGeometry y="60" width="140" height="30" as="geometry" />
        </mxCell>
        <mxCell id="EPkfVW3bVox5Lf1lPbg6-7" value="book" style="swimlane;fontStyle=0;childLayout=stackLayout;horizontal=1;startSize=30;horizontalStack=0;resizeParent=1;resizeParentMax=0;resizeLast=0;collapsible=1;marginBottom=0;" vertex="1" parent="1">
          <mxGeometry x="500" y="80" width="140" height="120" as="geometry" />
        </mxCell>
        <mxCell id="EPkfVW3bVox5Lf1lPbg6-8" value="id" style="text;strokeColor=none;fillColor=none;align=left;verticalAlign=middle;spacingLeft=4;spacingRight=4;overflow=hidden;points=[[0,0.5],[1,0.5]];portConstraint=eastwest;rotatable=0;" vertex="1" parent="EPkfVW3bVox5Lf1lPbg6-7">
          <mxGeometry y="30" width="140" height="30" as="geometry" />
        </mxCell>
        <mxCell id="EPkfVW3bVox5Lf1lPbg6-9" value="name" style="text;strokeColor=none;fillColor=none;align=left;verticalAlign=middle;spacingLeft=4;spacingRight=4;overflow=hidden;points=[[0,0.5],[1,0.5]];portConstraint=eastwest;rotatable=0;" vertex="1" parent="EPkfVW3bVox5Lf1lPbg6-7">
          <mxGeometry y="60" width="140" height="30" as="geometry" />
        </mxCell>
        <mxCell id="EPkfVW3bVox5Lf1lPbg6-10" value="author_id" style="text;strokeColor=none;fillColor=none;align=left;verticalAlign=middle;spacingLeft=4;spacingRight=4;overflow=hidden;points=[[0,0.5],[1,0.5]];portConstraint=eastwest;rotatable=0;" vertex="1" parent="EPkfVW3bVox5Lf1lPbg6-7">
          <mxGeometry y="90" width="140" height="30" as="geometry" />
        </mxCell>
        <mxCell id="EPkfVW3bVox5Lf1lPbg6-11" style="edgeStyle=orthogonalEdgeStyle;rounded=0;orthogonalLoop=1;jettySize=auto;html=1;exitX=0;exitY=0.5;exitDx=0;exitDy=0;entryX=1;entryY=0.5;entryDx=0;entryDy=0;" edge="1" parent="1" source="EPkfVW3bVox5Lf1lPbg6-10" target="EPkfVW3bVox5Lf1lPbg6-4">
          <mxGeometry relative="1" as="geometry" />
        </mxCell>
      </root>
    </mxGraphModel>
  </diagram>
  <diagram id="3bvgJleBp7JOCLqyibOa" name="one-to-one">
    <mxGraphModel dx="1807" dy="609" grid="1" gridSize="10" guides="1" tooltips="1" connect="1" arrows="1" fold="1" page="1" pageScale="1" pageWidth="827" pageHeight="1169" math="0" shadow="0">
      <root>
        <mxCell id="PZozVjgh1OtRc9Y3g3VS-0" />
        <mxCell id="PZozVjgh1OtRc9Y3g3VS-1" parent="PZozVjgh1OtRc9Y3g3VS-0" />
        <mxCell id="LPvxBzS5jzO4Ys5_n9A9-1" value="country" style="swimlane;fontStyle=0;childLayout=stackLayout;horizontal=1;startSize=30;horizontalStack=0;resizeParent=1;resizeParentMax=0;resizeLast=0;collapsible=1;marginBottom=0;" vertex="1" parent="PZozVjgh1OtRc9Y3g3VS-1">
          <mxGeometry x="-620" y="135" width="140" height="90" as="geometry" />
        </mxCell>
        <mxCell id="LPvxBzS5jzO4Ys5_n9A9-2" value="id  " style="text;strokeColor=none;fillColor=none;align=left;verticalAlign=middle;spacingLeft=4;spacingRight=4;overflow=hidden;points=[[0,0.5],[1,0.5]];portConstraint=eastwest;rotatable=0;" vertex="1" parent="LPvxBzS5jzO4Ys5_n9A9-1">
          <mxGeometry y="30" width="140" height="30" as="geometry" />
        </mxCell>
        <mxCell id="LPvxBzS5jzO4Ys5_n9A9-3" value="name" style="text;strokeColor=none;fillColor=none;align=left;verticalAlign=middle;spacingLeft=4;spacingRight=4;overflow=hidden;points=[[0,0.5],[1,0.5]];portConstraint=eastwest;rotatable=0;" vertex="1" parent="LPvxBzS5jzO4Ys5_n9A9-1">
          <mxGeometry y="60" width="140" height="30" as="geometry" />
        </mxCell>
        <mxCell id="LPvxBzS5jzO4Ys5_n9A9-5" value="capital" style="swimlane;fontStyle=0;childLayout=stackLayout;horizontal=1;startSize=30;horizontalStack=0;resizeParent=1;resizeParentMax=0;resizeLast=0;collapsible=1;marginBottom=0;" vertex="1" parent="PZozVjgh1OtRc9Y3g3VS-1">
          <mxGeometry x="-340" y="120" width="140" height="120" as="geometry" />
        </mxCell>
        <mxCell id="LPvxBzS5jzO4Ys5_n9A9-6" value="id" style="text;strokeColor=none;fillColor=none;align=left;verticalAlign=middle;spacingLeft=4;spacingRight=4;overflow=hidden;points=[[0,0.5],[1,0.5]];portConstraint=eastwest;rotatable=0;" vertex="1" parent="LPvxBzS5jzO4Ys5_n9A9-5">
          <mxGeometry y="30" width="140" height="30" as="geometry" />
        </mxCell>
        <mxCell id="LPvxBzS5jzO4Ys5_n9A9-7" value="name" style="text;strokeColor=none;fillColor=none;align=left;verticalAlign=middle;spacingLeft=4;spacingRight=4;overflow=hidden;points=[[0,0.5],[1,0.5]];portConstraint=eastwest;rotatable=0;" vertex="1" parent="LPvxBzS5jzO4Ys5_n9A9-5">
          <mxGeometry y="60" width="140" height="30" as="geometry" />
        </mxCell>
        <mxCell id="LPvxBzS5jzO4Ys5_n9A9-8" value="country_id" style="text;strokeColor=none;fillColor=none;align=left;verticalAlign=middle;spacingLeft=4;spacingRight=4;overflow=hidden;points=[[0,0.5],[1,0.5]];portConstraint=eastwest;rotatable=0;" vertex="1" parent="LPvxBzS5jzO4Ys5_n9A9-5">
          <mxGeometry y="90" width="140" height="30" as="geometry" />
        </mxCell>
        <mxCell id="LPvxBzS5jzO4Ys5_n9A9-12" style="edgeStyle=orthogonalEdgeStyle;rounded=0;orthogonalLoop=1;jettySize=auto;html=1;exitX=0;exitY=0.5;exitDx=0;exitDy=0;entryX=1;entryY=0.5;entryDx=0;entryDy=0;" edge="1" parent="PZozVjgh1OtRc9Y3g3VS-1" source="LPvxBzS5jzO4Ys5_n9A9-8" target="LPvxBzS5jzO4Ys5_n9A9-2">
          <mxGeometry relative="1" as="geometry" />
        </mxCell>
        <mxCell id="LPvxBzS5jzO4Ys5_n9A9-13" value="1" style="edgeLabel;html=1;align=center;verticalAlign=middle;resizable=0;points=[];" vertex="1" connectable="0" parent="LPvxBzS5jzO4Ys5_n9A9-12">
          <mxGeometry x="0.1375" y="-1" relative="1" as="geometry">
            <mxPoint y="11" as="offset" />
          </mxGeometry>
        </mxCell>
      </root>
    </mxGraphModel>
  </diagram>
  <diagram id="qd2MfE9WJVFzZownRGHJ" name="many-to-many">
    <mxGraphModel dx="980" dy="609" grid="1" gridSize="10" guides="1" tooltips="1" connect="1" arrows="1" fold="1" page="1" pageScale="1" pageWidth="827" pageHeight="1169" math="0" shadow="0">
      <root>
        <mxCell id="lyLtRCOYQLVkvUjqGWek-0" />
        <mxCell id="lyLtRCOYQLVkvUjqGWek-1" parent="lyLtRCOYQLVkvUjqGWek-0" />
        <mxCell id="lyLtRCOYQLVkvUjqGWek-2" value="order" style="swimlane;fontStyle=0;childLayout=stackLayout;horizontal=1;startSize=30;horizontalStack=0;resizeParent=1;resizeParentMax=0;resizeLast=0;collapsible=1;marginBottom=0;" vertex="1" parent="lyLtRCOYQLVkvUjqGWek-1">
          <mxGeometry x="360" y="80" width="120" height="120" as="geometry" />
        </mxCell>
        <mxCell id="lyLtRCOYQLVkvUjqGWek-3" value="id" style="text;strokeColor=none;fillColor=none;align=left;verticalAlign=middle;spacingLeft=4;spacingRight=4;overflow=hidden;points=[[0,0.5],[1,0.5]];portConstraint=eastwest;rotatable=0;" vertex="1" parent="lyLtRCOYQLVkvUjqGWek-2">
          <mxGeometry y="30" width="120" height="30" as="geometry" />
        </mxCell>
        <mxCell id="lyLtRCOYQLVkvUjqGWek-4" value="client_id" style="text;strokeColor=none;fillColor=none;align=left;verticalAlign=middle;spacingLeft=4;spacingRight=4;overflow=hidden;points=[[0,0.5],[1,0.5]];portConstraint=eastwest;rotatable=0;" vertex="1" parent="lyLtRCOYQLVkvUjqGWek-2">
          <mxGeometry y="60" width="120" height="30" as="geometry" />
        </mxCell>
        <mxCell id="lyLtRCOYQLVkvUjqGWek-5" value="item_id" style="text;strokeColor=none;fillColor=none;align=left;verticalAlign=middle;spacingLeft=4;spacingRight=4;overflow=hidden;points=[[0,0.5],[1,0.5]];portConstraint=eastwest;rotatable=0;" vertex="1" parent="lyLtRCOYQLVkvUjqGWek-2">
          <mxGeometry y="90" width="120" height="30" as="geometry" />
        </mxCell>
        <mxCell id="lyLtRCOYQLVkvUjqGWek-6" value="item" style="swimlane;fontStyle=0;childLayout=stackLayout;horizontal=1;startSize=30;horizontalStack=0;resizeParent=1;resizeParentMax=0;resizeLast=0;collapsible=1;marginBottom=0;" vertex="1" parent="lyLtRCOYQLVkvUjqGWek-1">
          <mxGeometry x="120" y="80" width="120" height="90" as="geometry" />
        </mxCell>
        <mxCell id="lyLtRCOYQLVkvUjqGWek-7" value="id" style="text;strokeColor=none;fillColor=none;align=left;verticalAlign=middle;spacingLeft=4;spacingRight=4;overflow=hidden;points=[[0,0.5],[1,0.5]];portConstraint=eastwest;rotatable=0;" vertex="1" parent="lyLtRCOYQLVkvUjqGWek-6">
          <mxGeometry y="30" width="120" height="30" as="geometry" />
        </mxCell>
        <mxCell id="lyLtRCOYQLVkvUjqGWek-8" value="name" style="text;strokeColor=none;fillColor=none;align=left;verticalAlign=middle;spacingLeft=4;spacingRight=4;overflow=hidden;points=[[0,0.5],[1,0.5]];portConstraint=eastwest;rotatable=0;" vertex="1" parent="lyLtRCOYQLVkvUjqGWek-6">
          <mxGeometry y="60" width="120" height="30" as="geometry" />
        </mxCell>
        <mxCell id="lyLtRCOYQLVkvUjqGWek-10" style="edgeStyle=orthogonalEdgeStyle;rounded=0;orthogonalLoop=1;jettySize=auto;html=1;exitX=0;exitY=0.5;exitDx=0;exitDy=0;entryX=1;entryY=0.5;entryDx=0;entryDy=0;" edge="1" parent="lyLtRCOYQLVkvUjqGWek-1" source="lyLtRCOYQLVkvUjqGWek-5" target="lyLtRCOYQLVkvUjqGWek-7">
          <mxGeometry relative="1" as="geometry" />
        </mxCell>
        <mxCell id="lyLtRCOYQLVkvUjqGWek-11" value="client" style="swimlane;fontStyle=0;childLayout=stackLayout;horizontal=1;startSize=30;horizontalStack=0;resizeParent=1;resizeParentMax=0;resizeLast=0;collapsible=1;marginBottom=0;" vertex="1" parent="lyLtRCOYQLVkvUjqGWek-1">
          <mxGeometry x="600" y="80" width="120" height="90" as="geometry" />
        </mxCell>
        <mxCell id="lyLtRCOYQLVkvUjqGWek-12" value="id" style="text;strokeColor=none;fillColor=none;align=left;verticalAlign=middle;spacingLeft=4;spacingRight=4;overflow=hidden;points=[[0,0.5],[1,0.5]];portConstraint=eastwest;rotatable=0;" vertex="1" parent="lyLtRCOYQLVkvUjqGWek-11">
          <mxGeometry y="30" width="120" height="30" as="geometry" />
        </mxCell>
        <mxCell id="lyLtRCOYQLVkvUjqGWek-13" value="name" style="text;strokeColor=none;fillColor=none;align=left;verticalAlign=middle;spacingLeft=4;spacingRight=4;overflow=hidden;points=[[0,0.5],[1,0.5]];portConstraint=eastwest;rotatable=0;" vertex="1" parent="lyLtRCOYQLVkvUjqGWek-11">
          <mxGeometry y="60" width="120" height="30" as="geometry" />
        </mxCell>
        <mxCell id="lyLtRCOYQLVkvUjqGWek-15" style="edgeStyle=orthogonalEdgeStyle;rounded=0;orthogonalLoop=1;jettySize=auto;html=1;exitX=1;exitY=0.5;exitDx=0;exitDy=0;entryX=0;entryY=0.5;entryDx=0;entryDy=0;" edge="1" parent="lyLtRCOYQLVkvUjqGWek-1" source="lyLtRCOYQLVkvUjqGWek-4" target="lyLtRCOYQLVkvUjqGWek-12">
          <mxGeometry relative="1" as="geometry" />
        </mxCell>
      </root>
    </mxGraphModel>
  </diagram>
</mxfile>
